<?xml version="1.0" encoding="utf-8"?>
<!-- Svg Vector Icons : http://www.onlinewebfonts.com/icon -->
<!DOCTYPE svg PUBLIC "-//W3C//DTD SVG 1.1//EN" "http://www.w3.org/Graphics/SVG/1.1/DTD/svg11.dtd">
<svg version="1.1" xmlns="http://www.w3.org/2000/svg" xmlns:xlink="http://www.w3.org/1999/xlink" x="0px" y="0px" viewBox="0 0 256 256" enable-background="new 0 0 256 256" xml:space="preserve">
<metadata> Svg Vector Icons : http://www.onlinewebfonts.com/icon </metadata>
<g><g><path fill="#000000" d="M128,246c-2.7,0-5.5-0.7-7.9-2.1c-58.5-33.4-89-91.3-93.2-176.8c-0.2-4.4,1.3-8.8,4.2-12.1c2.9-3.3,7.2-5.3,11.6-5.4c12-0.3,27.4-10.2,41.1-18.9c6.3-4,12.2-7.8,17.5-10.5c10.8-5.4,17.9-8.9,24-10c2-0.3,3.6-0.3,5.3,0c6.2,1.1,13.3,4.6,24.1,10c5.3,2.6,11.2,6.5,17.5,10.5c13.7,8.7,29.1,18.5,41.1,18.9c4.4,0.1,8.7,2.1,11.6,5.5c2.9,3.2,4.4,7.6,4.2,12c-4.2,85.6-34.7,143.4-93.2,176.8C133.5,245.3,130.8,246,128,246z M127.6,23.6L127.6,23.6c-4.1,0.7-10.9,4.1-20.2,8.8c-4.7,2.3-10.3,5.9-16.3,9.8c-15.1,9.7-32.3,20.6-48.1,21c-0.7,0-1.3,0.3-1.8,0.9c-0.6,0.6-0.9,1.5-0.8,2.4c4,81.7,31.5,134.3,86.4,165.7c0.7,0.4,1.6,0.4,2.4,0c54.9-31.4,82.3-84,86.3-165.7c0-0.9-0.2-1.7-0.8-2.3c-0.5-0.6-1.2-0.9-1.8-0.9c-15.8-0.4-32.9-11.3-48.1-21c-6-3.8-11.6-7.4-16.3-9.8c-9.3-4.7-16.1-8-20.2-8.8L127.6,23.6L127.6,23.6z"/><path fill="#000000" d="M200.4,73.6c-1.4-1.5-3.3-2.5-5.3-2.5c-15.7-0.4-35.5-17.1-48.5-23.7c-8.1-4-13.4-6.7-17.4-7.4c-0.4,0-0.8-0.1-1.2-0.1s-0.8,0-1.2,0.1c-4,0.7-9.3,3.4-17.4,7.4C96.3,54,76.5,70.7,60.9,71.1c-2,0-4,0.9-5.3,2.5c-1.4,1.5-2.1,3.6-2,5.7c3.4,68.3,27.9,110.5,70.8,135.1c1.1,0.7,2.4,0.9,3.6,0.9c1.2,0,2.5-0.3,3.6-0.9c43-24.6,67.5-66.8,70.8-135.1C202.5,77.2,201.8,75.2,200.4,73.6z M148.3,129.4l4.8,28L128,144.2l-25.1,13.2l4.8-28l-20.4-19.8l28.1-4.1L128,80l12.6,25.5l28.1,4.1L148.3,129.4z"/></g></g>
</svg>